<svg width="20" height="20" viewBox="0 0 20 20" fill="none" xmlns="http://www.w3.org/2000/svg">
<path d="M1.66797 16.6667C1.85728 16.9304 2.10795 17.1441 2.39832 17.2893C2.6887 17.4345 3.01006 17.5068 3.33464 17.5C3.65922 17.5068 3.98057 17.4345 4.27095 17.2893C4.56133 17.1441 4.81199 16.9304 5.0013 16.6667C5.19061 16.4029 5.44128 16.1892 5.73166 16.044C6.02203 15.8989 6.34339 15.8265 6.66797 15.8333C6.99255 15.8265 7.31391 15.8989 7.60428 16.044C7.89466 16.1892 8.14533 16.4029 8.33464 16.6667C8.52394 16.9304 8.77461 17.1441 9.06499 17.2893C9.35537 17.4345 9.67672 17.5068 10.0013 17.5C10.3259 17.5068 10.6472 17.4345 10.9376 17.2893C11.228 17.1441 11.4787 16.9304 11.668 16.6667C11.8573 16.4029 12.1079 16.1892 12.3983 16.044C12.6887 15.8989 13.0101 15.8265 13.3346 15.8333C13.6592 15.8265 13.9806 15.8989 14.2709 16.044C14.5613 16.1892 14.812 16.4029 15.0013 16.6667C15.1906 16.9304 15.4413 17.1441 15.7317 17.2893C16.022 17.4345 16.3434 17.5068 16.668 17.5C16.9925 17.5068 17.3139 17.4345 17.6043 17.2893C17.8947 17.1441 18.1453 16.9304 18.3346 16.6667M3.33464 15L2.5013 10.8333H17.5013L15.8346 14.1667M4.16797 10.8333V5.83333H10.8346L14.168 10.8333M5.83464 5.83333V2.5H5.0013" stroke="white" stroke-width="1.66667" stroke-linecap="round" stroke-linejoin="round"/>
</svg>
